<?xml version="1.0" encoding="UTF-8" standalone="no"?>
<svg
   xmlns:dc="http://purl.org/dc/elements/1.1/"
   xmlns:cc="http://web.resource.org/cc/"
   xmlns:rdf="http://www.w3.org/1999/02/22-rdf-syntax-ns#"
   xmlns:svg="http://www.w3.org/2000/svg"
   xmlns="http://www.w3.org/2000/svg"
   xmlns:sodipodi="http://sodipodi.sourceforge.net/DTD/sodipodi-0.dtd"
   xmlns:inkscape="http://www.inkscape.org/namespaces/inkscape"
   width="2465.54"
   height="619.90997"
   id="svg2"
   sodipodi:version="0.32"
   inkscape:version="0.44"
   sodipodi:docname="Cauer_lowpass.svg"
   sodipodi:docbase="/home/alejo"
   version="1.0">
  <metadata
     id="metadata123">
    <rdf:RDF>
      <cc:Work
         rdf:about="">
        <dc:format>image/svg+xml</dc:format>
        <dc:type
           rdf:resource="http://purl.org/dc/dcmitype/StillImage" />
      </cc:Work>
    </rdf:RDF>
  </metadata>
  <sodipodi:namedview
     inkscape:window-height="767"
     inkscape:window-width="1214"
     inkscape:pageshadow="2"
     inkscape:pageopacity="0.0"
     guidetolerance="10.0"
     gridtolerance="50"
     objecttolerance="10.0"
     borderopacity="1.0"
     bordercolor="#666666"
     pagecolor="#ffffff"
     id="base"
     showgrid="true"
     showguides="true"
     inkscape:grid-points="false"
     inkscape:zoom="0.23173109"
     inkscape:cx="1860.223"
     inkscape:cy="223.4565"
     inkscape:window-x="0"
     inkscape:window-y="0"
     inkscape:current-layer="svg2"
     inkscape:grid-bbox="false"
     height="619.91px" />
  <defs
     id="defs4">
    <marker
       id="ArrowEnd"
       viewBox="0 0 10 10"
       refX="0"
       refY="5"
       markerUnits="strokeWidth"
       markerWidth="4"
       markerHeight="3"
       orient="auto">
      <path
         d="M 0,0 L 10,5 L 0,10 L 0,0 z "
         id="path7" />
    </marker>
    <marker
       id="ArrowStart"
       viewBox="0 0 10 10"
       refX="10"
       refY="5"
       markerUnits="strokeWidth"
       markerWidth="4"
       markerHeight="3"
       orient="auto">
      <path
         d="M 10,0 L 0,5 L 10,10 L 10,0 z "
         id="path10" />
    </marker>
  </defs>
  <path
     id="path14"
     d="M 283.46165,422.87718 L 283.46165,575.12718"
     style="fill:none;stroke:black;stroke-width:6.82499981;stroke-linecap:round" />
  <path
     id="path16"
     d="M 283.46165,391.37718 L 283.46165,239.12698"
     style="fill:none;stroke:black;stroke-width:6.82499981;stroke-linecap:round" />
  <path
     id="path18"
     d="M 367.46165,391.37718 L 199.46165,391.37718"
     style="fill:none;stroke:black;stroke-width:6.82499981;stroke-linecap:round" />
  <path
     id="path20"
     d="M 367.46165,422.87718 L 199.46165,422.87718"
     style="fill:none;stroke:black;stroke-width:6.82499981;stroke-linecap:round" />
  <path
     id="path22"
     d="M 913.46165,422.87718 L 913.46165,575.12718"
     style="fill:none;stroke:black;stroke-width:6.82499981;stroke-linecap:round" />
  <path
     id="path24"
     d="M 913.46165,391.37718 L 913.46165,239.12698"
     style="fill:none;stroke:black;stroke-width:6.82499981;stroke-linecap:round" />
  <path
     id="path26"
     d="M 997.45465,391.37718 L 829.45365,391.37718"
     style="fill:none;stroke:black;stroke-width:6.82499981;stroke-linecap:round" />
  <path
     id="path28"
     d="M 997.45465,422.87718 L 829.45365,422.87718"
     style="fill:none;stroke:black;stroke-width:6.82499981;stroke-linecap:round" />
  <path
     id="path30"
     d="M 2173.4547,422.87718 L 2173.4547,575.12718"
     style="fill:none;stroke:black;stroke-width:6.82499981;stroke-linecap:round" />
  <path
     id="path32"
     d="M 2173.4547,391.37718 L 2173.4547,239.12698"
     style="fill:none;stroke:black;stroke-width:6.82499981;stroke-linecap:round" />
  <path
     id="path34"
     d="M 2257.4547,391.37718 L 2089.4547,391.37718"
     style="fill:none;stroke:black;stroke-width:6.82499981;stroke-linecap:round" />
  <path
     id="path36"
     d="M 2257.4547,422.87718 L 2089.4547,422.87718"
     style="fill:none;stroke:black;stroke-width:6.82499981;stroke-linecap:round" />
  <path
     id="path38"
     d="M 640.46165,239.12698 C 650.96165,186.62698 692.96165,186.62698 703.46165,239.12698"
     style="fill:none;stroke:black;stroke-width:6.82499981;stroke-linecap:round" />
  <path
     id="path40"
     d="M 640.46165,239.12698 C 629.96165,291.62718 661.46165,291.62718 650.96165,239.12698"
     style="fill:none;stroke:black;stroke-width:6.82499981;stroke-linecap:round" />
  <path
     id="path42"
     d="M 482.96165,239.12698 C 493.46165,186.62698 535.46165,186.62698 545.96165,239.12698"
     style="fill:none;stroke:black;stroke-width:6.82499981;stroke-linecap:round" />
  <path
     id="path44"
     d="M 535.46165,239.12698 C 545.96165,186.62698 587.96165,186.62698 598.46165,239.12698"
     style="fill:none;stroke:black;stroke-width:6.82499981;stroke-linecap:round" />
  <path
     id="path46"
     d="M 587.96165,239.12698 C 598.46165,186.62698 640.46165,186.62698 650.96165,239.12698"
     style="fill:none;stroke:black;stroke-width:6.82499981;stroke-linecap:round" />
  <path
     id="path48"
     d="M 535.46165,239.12698 C 524.96165,291.62718 556.46165,291.62718 545.96165,239.12698"
     style="fill:none;stroke:black;stroke-width:6.82499981;stroke-linecap:round" />
  <path
     id="path50"
     d="M 587.96165,239.12698 C 577.46165,291.62718 608.96165,291.62718 598.46165,239.12698"
     style="fill:none;stroke:black;stroke-width:6.82499981;stroke-linecap:round" />
  <path
     id="path52"
     d="M 745.46165,239.12698 L 703.46165,239.12698"
     style="fill:none;stroke:black;stroke-width:6.82499981;stroke-linecap:round" />
  <path
     id="path54"
     d="M 451.46165,239.12698 L 482.96165,239.12698"
     style="fill:none;stroke:black;stroke-width:6.82499981;stroke-linecap:round" />
  <path
     id="path56"
     d="M 1270.4547,239.12698 C 1280.9547,186.62698 1322.9547,186.62698 1333.4547,239.12698"
     style="fill:none;stroke:black;stroke-width:6.82499981;stroke-linecap:round" />
  <path
     id="path58"
     d="M 1270.4547,239.12698 C 1259.9547,291.62718 1291.4547,291.62718 1280.9547,239.12698"
     style="fill:none;stroke:black;stroke-width:6.82499981;stroke-linecap:round" />
  <path
     id="path60"
     d="M 1112.9547,239.12698 C 1123.4547,186.62698 1165.4547,186.62698 1175.9547,239.12698"
     style="fill:none;stroke:black;stroke-width:6.82499981;stroke-linecap:round" />
  <path
     id="path62"
     d="M 1165.4547,239.12698 C 1175.9547,186.62698 1217.9547,186.62698 1228.4547,239.12698"
     style="fill:none;stroke:black;stroke-width:6.82499981;stroke-linecap:round" />
  <path
     id="path64"
     d="M 1217.9547,239.12698 C 1228.4547,186.62698 1270.4547,186.62698 1280.9547,239.12698"
     style="fill:none;stroke:black;stroke-width:6.82499981;stroke-linecap:round" />
  <path
     id="path66"
     d="M 1165.4547,239.12698 C 1154.9547,291.62718 1186.4547,291.62718 1175.9547,239.12698"
     style="fill:none;stroke:black;stroke-width:6.82499981;stroke-linecap:round" />
  <path
     id="path68"
     d="M 1217.9547,239.12698 C 1207.4547,291.62718 1238.9547,291.62718 1228.4547,239.12698"
     style="fill:none;stroke:black;stroke-width:6.82499981;stroke-linecap:round" />
  <path
     id="path70"
     d="M 1375.4547,239.12698 L 1333.4547,239.12698"
     style="fill:none;stroke:black;stroke-width:6.82499981;stroke-linecap:round" />
  <path
     id="path72"
     d="M 1081.4547,239.12698 L 1112.9547,239.12698"
     style="fill:none;stroke:black;stroke-width:6.82499981;stroke-linecap:round" />
  <path
     id="path74"
     d="M 1900.4547,239.12698 C 1910.9547,186.62698 1952.9547,186.62698 1963.4547,239.12698"
     style="fill:none;stroke:black;stroke-width:6.82499981;stroke-linecap:round" />
  <path
     id="path76"
     d="M 1900.4547,239.12698 C 1889.9547,291.62718 1921.4547,291.62718 1910.9547,239.12698"
     style="fill:none;stroke:black;stroke-width:6.82499981;stroke-linecap:round" />
  <path
     id="path78"
     d="M 1742.9547,239.12698 C 1753.4547,186.62698 1795.4547,186.62698 1805.9547,239.12698"
     style="fill:none;stroke:black;stroke-width:6.82499981;stroke-linecap:round" />
  <path
     id="path80"
     d="M 1795.4547,239.12698 C 1805.9547,186.62698 1847.9547,186.62698 1858.4547,239.12698"
     style="fill:none;stroke:black;stroke-width:6.82499981;stroke-linecap:round" />
  <path
     id="path82"
     d="M 1847.9547,239.12698 C 1858.4547,186.62698 1900.4547,186.62698 1910.9547,239.12698"
     style="fill:none;stroke:black;stroke-width:6.82499981;stroke-linecap:round" />
  <path
     id="path84"
     d="M 1795.4547,239.12698 C 1784.9547,291.62718 1816.4547,291.62718 1805.9547,239.12698"
     style="fill:none;stroke:black;stroke-width:6.82499981;stroke-linecap:round" />
  <path
     id="path86"
     d="M 1847.9547,239.12698 C 1837.4547,291.62718 1868.9547,291.62718 1858.4547,239.12698"
     style="fill:none;stroke:black;stroke-width:6.82499981;stroke-linecap:round" />
  <path
     id="path88"
     d="M 2005.4547,239.12698 L 1963.4547,239.12698"
     style="fill:none;stroke:black;stroke-width:6.82499981;stroke-linecap:round" />
  <path
     id="path90"
     d="M 1711.4547,239.12698 L 1742.9547,239.12698"
     style="fill:none;stroke:black;stroke-width:6.82499981;stroke-linecap:round" />
  <path
     id="path92"
     d="M 31.461253,239.12698 L 451.46165,239.12698"
     style="fill:none;stroke:black;stroke-width:6.82499981;stroke-linecap:round" />
  <path
     id="path94"
     d="M 2005.4547,239.12698 L 2425.4547,239.12698"
     style="fill:none;stroke:black;stroke-width:6.82499981;stroke-linecap:round" />
  <path
     id="path96"
     d="M 1375.4547,239.12698 L 1711.4547,239.12698"
     style="fill:none;stroke:black;stroke-width:6.82499981;stroke-linecap:round;stroke-miterlimit:4;stroke-dasharray:6.82499981, 27.29999924;stroke-dashoffset:0" />
  <path
     id="path98"
     d="M 745.46165,239.12698 L 1081.4547,239.12698"
     style="fill:none;stroke:black;stroke-width:6.82499981;stroke-linecap:round" />
  <path
     id="path100"
     d="M 1375.6847,573.51168 L 974.3281,573.51168 L 785.45446,573.51168 L 29.959201,573.51168"
     style="fill:none;stroke:black;stroke-width:6.82499981;stroke-linecap:round;stroke-miterlimit:4;stroke-dasharray:none" />
  <path
     id="path102"
     d="M 47.211253,239.12698 C 47.211253,230.43198 40.160453,223.37698 31.461253,223.37698 C 22.765953,223.37698 15.711253,230.42798 15.711253,239.12698 C 15.711253,247.82198 22.761953,254.87698 31.461253,254.87698 C 40.156453,254.87698 47.211253,247.82598 47.211253,239.12698"
     style="fill:black;fill-rule:evenodd;stroke:none" />
  <path
     id="path104"
     d="M 47.211253,575.12718 C 47.211253,566.43118 40.160453,559.37718 31.461253,559.37718 C 22.765953,559.37718 15.711253,566.42818 15.711253,575.12718 C 15.711253,583.82218 22.761953,590.87718 31.461253,590.87718 C 40.156453,590.87718 47.211253,583.82618 47.211253,575.12718"
     style="fill:black;fill-rule:evenodd;stroke:none" />
  <path
     id="path106"
     d="M 299.21165,575.12718 C 299.21165,566.43118 292.16065,559.37718 283.46165,559.37718 C 274.76665,559.37718 267.71165,566.42818 267.71165,575.12718 C 267.71165,583.82218 274.76265,590.87718 283.46165,590.87718 C 292.15665,590.87718 299.21165,583.82618 299.21165,575.12718"
     style="fill:black;fill-rule:evenodd;stroke:none" />
  <path
     id="path108"
     d="M 299.21165,239.12698 C 299.21165,230.43198 292.16065,223.37698 283.46165,223.37698 C 274.76665,223.37698 267.71165,230.42798 267.71165,239.12698 C 267.71165,247.82198 274.76265,254.87698 283.46165,254.87698 C 292.15665,254.87698 299.21165,247.82598 299.21165,239.12698"
     style="fill:black;fill-rule:evenodd;stroke:none" />
  <path
     id="path110"
     d="M 929.21165,239.12698 C 929.21165,230.43198 922.16065,223.37698 913.46165,223.37698 C 904.76665,223.37698 897.71165,230.42798 897.71165,239.12698 C 897.71165,247.82198 904.76265,254.87698 913.46165,254.87698 C 922.15665,254.87698 929.21165,247.82598 929.21165,239.12698"
     style="fill:black;fill-rule:evenodd;stroke:none" />
  <path
     id="path112"
     d="M 929.21165,575.12718 C 929.21165,566.43118 922.16065,559.37718 913.46165,559.37718 C 904.76665,559.37718 897.71165,566.42818 897.71165,575.12718 C 897.71165,583.82218 904.76265,590.87718 913.46165,590.87718 C 922.15665,590.87718 929.21165,583.82618 929.21165,575.12718"
     style="fill:black;fill-rule:evenodd;stroke:none" />
  <path
     id="path114"
     d="M 2189.2147,239.12698 C 2189.2147,230.43198 2182.1647,223.37698 2173.4647,223.37698 C 2164.7647,223.37698 2157.7147,230.42798 2157.7147,239.12698 C 2157.7147,247.82198 2164.7647,254.87698 2173.4647,254.87698 C 2182.1547,254.87698 2189.2147,247.82598 2189.2147,239.12698"
     style="fill:black;fill-rule:evenodd;stroke:none" />
  <path
     id="path116"
     d="M 2189.2147,575.12718 C 2189.2147,566.43118 2182.1647,559.37718 2173.4647,559.37718 C 2164.7647,559.37718 2157.7147,566.42818 2157.7147,575.12718 C 2157.7147,583.82218 2164.7647,590.87718 2173.4647,590.87718 C 2182.1547,590.87718 2189.2147,583.82618 2189.2147,575.12718"
     style="fill:black;fill-rule:evenodd;stroke:none" />
  <path
     id="path118"
     d="M 2441.2147,239.12698 C 2441.2147,230.43198 2434.1647,223.37698 2425.4647,223.37698 C 2416.7647,223.37698 2409.7147,230.42798 2409.7147,239.12698 C 2409.7147,247.82198 2416.7647,254.87698 2425.4647,254.87698 C 2434.1547,254.87698 2441.2147,247.82598 2441.2147,239.12698"
     style="fill:black;fill-rule:evenodd;stroke:none" />
  <path
     id="path120"
     d="M 2441.2147,575.12718 C 2441.2147,566.43118 2434.1647,559.37718 2425.4647,559.37718 C 2416.7647,559.37718 2409.7147,566.42818 2409.7147,575.12718 C 2409.7147,583.82218 2416.7647,590.87718 2425.4647,590.87718 C 2434.1547,590.87718 2441.2147,583.82618 2441.2147,575.12718"
     style="fill:black;fill-rule:evenodd;stroke:none" />
  <path
     id="path3835"
     d="M 1361.0151,573.51167 L 1697.0151,573.51167"
     style="fill:none;stroke:black;stroke-width:6.82499981;stroke-linecap:round;stroke-miterlimit:4;stroke-dasharray:6.82499981, 27.29999924;stroke-dashoffset:0" />
  <path
     style="fill:none;fill-rule:evenodd;stroke:black;stroke-width:6.82499981;stroke-linecap:round;stroke-linejoin:miter;stroke-miterlimit:4;stroke-dasharray:none;stroke-opacity:1"
     d="M 2435.6847,573.51167 L 1695.6847,573.51167"
     id="path5631" />
  <text
     xml:space="preserve"
     style="font-size:72px;font-style:normal;font-variant:normal;font-weight:bold;font-stretch:normal;text-align:start;line-height:125%;writing-mode:lr-tb;text-anchor:start;fill:black;fill-opacity:1;stroke:none;stroke-width:1px;stroke-linecap:butt;stroke-linejoin:miter;stroke-opacity:1;font-family:Serif"
     x="75.684654"
     y="418.01141"
     id="text1893"
     sodipodi:linespacing="125%"><tspan
       sodipodi:role="line"
       id="tspan1895"
       x="75.684654"
       y="418.01141">C</tspan><tspan
       style="font-size:56px"
       id="tspan1897"
       dy="20">1</tspan></text>
  <text
     xml:space="preserve"
     style="font-size:72px;font-style:normal;font-variant:normal;font-weight:bold;font-stretch:normal;text-align:start;line-height:125%;writing-mode:lr-tb;text-anchor:start;fill:black;fill-opacity:1;stroke:none;stroke-width:1px;stroke-linecap:butt;stroke-linejoin:miter;stroke-opacity:1;font-family:Serif"
     x="555.68463"
     y="90.896172"
     id="text9312"
     sodipodi:linespacing="125%"><tspan
       sodipodi:role="line"
       id="tspan9314"
       x="555.68463"
       y="90.896172">L</tspan><tspan
       style="font-size:56px"
       id="tspan9316"
       dy="20">2</tspan></text>
  <text
     xml:space="preserve"
     style="font-size:72px;font-style:normal;font-variant:normal;font-weight:bold;font-stretch:normal;text-align:start;line-height:125%;writing-mode:lr-tb;text-anchor:start;fill:black;fill-opacity:1;stroke:none;stroke-width:1px;stroke-linecap:butt;stroke-linejoin:miter;stroke-opacity:1;font-family:Serif"
     x="702.92682"
     y="417.61493"
     id="text9318"
     sodipodi:linespacing="125%"><tspan
       sodipodi:role="line"
       id="tspan9320"
       x="702.92682"
       y="417.61493">C</tspan><tspan
       style="font-size:56px"
       id="tspan9322"
       dy="20">3</tspan></text>
  <text
     xml:space="preserve"
     style="font-size:72px;font-style:normal;font-variant:normal;font-weight:bold;font-stretch:normal;text-align:start;line-height:125%;writing-mode:lr-tb;text-anchor:start;fill:black;fill-opacity:1;stroke:none;stroke-width:1px;stroke-linecap:butt;stroke-linejoin:miter;stroke-opacity:1;font-family:Serif"
     x="1978.88"
     y="418.01141"
     id="text9324"
     sodipodi:linespacing="125%"><tspan
       sodipodi:role="line"
       id="tspan9326"
       x="1978.88"
       y="418.01141">C</tspan><tspan
       style="font-size:56px"
       id="tspan9328"
       dy="20">n</tspan></text>
  <text
     xml:space="preserve"
     style="font-size:72px;font-style:normal;font-variant:normal;font-weight:bold;font-stretch:normal;text-align:start;line-height:125%;writing-mode:lr-tb;text-anchor:start;fill:black;fill-opacity:1;stroke:none;stroke-width:1px;stroke-linecap:butt;stroke-linejoin:miter;stroke-opacity:1;font-family:Serif"
     x="1195.6847"
     y="90.896172"
     id="text9330"
     sodipodi:linespacing="125%"><tspan
       sodipodi:role="line"
       id="tspan9332"
       x="1195.6847"
       y="90.896172">L</tspan><tspan
       style="font-size:56px"
       id="tspan9334"
       dy="20">4</tspan></text>
  <text
     xml:space="preserve"
     style="font-size:72px;font-style:normal;font-variant:normal;font-weight:bold;font-stretch:normal;text-align:start;line-height:125%;writing-mode:lr-tb;text-anchor:start;fill:black;fill-opacity:1;stroke:none;stroke-width:1px;stroke-linecap:butt;stroke-linejoin:miter;stroke-opacity:1;font-family:Serif"
     x="1795.6847"
     y="90.896172"
     id="text9336"
     sodipodi:linespacing="125%"><tspan
       sodipodi:role="line"
       id="tspan9338"
       x="1795.6847"
       y="90.896172">L</tspan><tspan
       style="font-size:56px"
       id="tspan9340"
       dy="20">n-1</tspan></text>
</svg>
